FFmpeg version SVN-r25716, Copyright (c) 2000-2010 the FFmpeg developers  built on Nov 10 2010 12:23:18 with gcc 4.1.2 20080704 (Red Hat 4.1.2-48)  configuration: --enable-libmp3lame --enable-shared --disable-mmx --arch=x86_64  libavutil     50.33. 0 / 50.33. 0  libavcore      0.12. 1 /  0.12. 1  libavcodec    52.94. 4 / 52.94. 4  libavformat   52.84. 0 / 52.84. 0  libavdevice   52. 2. 2 / 52. 2. 2  libavfilter    1.59. 0 /  1.59. 0  libswscale     0.12. 0 /  0.12. 0Seems stream 0 codec frame rate differs from container frame rate: 600.00 (600/1) -> 20.00 (20/1)Input #0, mov,mp4,m4a,3gp,3g2,mj2, from '/RAID10/data/converted_video_files/25845.mov':  Metadata:    major_brand     : qt      minor_version   : 537199360    compatible_brands: qt    Duration: 00:00:21.05, start: 0.000000, bitrate: 1939 kb/s    Stream #0.0(eng): Video: cinepak, yuv420p, 341x300, 1937 kb/s, 20 fps, 20 tbr, 600 tbn, 600 tbc[buffer @ 0x17345e80] w:341 h:300 pixfmt:yuv420pOutput #0, flv, to '/RAID10/data/converted_video_files/25845.flv':  Metadata:    encoder         : Lavf52.84.0    Stream #0.0(eng): Video: flv, yuv420p, 341x300, q=2-31, 600 kb/s, 1k tbn, 24 tbcStream mapping:  Stream #0.0 -> #0.0Press [q] to stop encodingframe=  168 fps=  0 q=2.1 size=     651kB time=8.38 bitrate= 637.0kbits/s    frame=  326 fps=317 q=2.0 size=    1188kB time=16.29 bitrate= 597.4kbits/s    frame=  421 fps=296 q=1.6 Lsize=    1484kB time=21.04 bitrate= 577.9kbits/s    video:1478kB audio:0kB global headers:0kB muxing overhead 0.459083%